<?xml version="1.0" encoding="UTF-8"?>
<svg id="Layer_1" xmlns="http://www.w3.org/2000/svg" viewBox="0 0 216.05 221.52">
  <path d="M200.77,192.01c-.73,1.39-1.5,2.72-2.51,3.89-1.58,1.84-3.04,3.86-5.52,4.63-.22.07-.36.21-.39.39-.3,1.58-1.64,2.42-2.55,3.57-.53.69-.94,1.44-1.31,2.2-.87,1.79-2.04,3.39-3.1,5.05-1.14,1.78-2.2,3.61-3.27,5.42-.82,1.38-1.61,2.76-2.56,4.07-.35.48-.65.58-1.14.57-1.16-.02-2.32-.02-3.48-.02-.03-.09-.04-.17-.04-.25l-17.85.03-17.83.04-30.39.07-9.77.02-28.85.06-11.81.02-19.22.04h-.26l-7.08.02c-1.12.18-1.73-.41-2-1.23-.66-2.02-1.78-3.84-2.45-5.86-.65-1.97-1.7-3.8-2.18-5.84-.1-.42-.55-.81-.93-1.09-2.14-1.56-3.61-3.65-4.93-5.89-1.28-2.17-1.85-4.47-1.51-6.93.3-2.2,1.17-4.24,2.05-6.26.38-.86.93-1.75,1.64-2.35,1.36-1.14,1.75-2.81,2.55-4.23.59-1.05.42-2.52.71-3.78.64-2.88,1.25-5.76,1.98-8.61.48-1.92.92-3.82,1.12-5.79.02-.25.08-.48.21-.74.4-.79.69-1.68,0-2.47-.33-.37-.19-.47.13-.69.96-.67,1.17-1.73,1.3-2.8.12-1.05.03-2.16.73-3.08.02-.03.03-.09.01-.11-.84-1.51.55-2.75.49-4.16-.01-.35.03-.63.37-.91.24-.2.39-.8.27-1.09-.86-2.02.62-3.88.34-5.84-.03-.22.16-.42.23-.61.26-.72.53-1.46-.12-2.21-.36-.42-.37-1.29.03-1.51.85-.46.75-1.14.81-1.83.23-2.36,1-4.65.97-7.05,0-.11.04-.3.1-.32,1.11-.31.72-1.26.88-1.99.58-2.65.89-5.33,1.11-8.02.06-.74.34-1.44.66-1.89.98-1.41,1.24-3.08,1.92-4.58.93-2.06,2.36-3.48,4.18-4.62.56-.36,1.28-1,1.75-.87,1.43.4,2.31-.57,3.45-.91,1.09-.33,2.03-.92,3.08-1.25,2.09-.64,4.04-1.6,6.09-2.34.86-.31,1.91.04,2.61-.89.65-.88,1.55-1.54,2.36-2.28.43-.4.69-.4,1.05-.07.44.41,1.12.39,1.41.17.77-.59,1.66-.49,2.49-.72.51-.14.84-.16.93.49.06.47.36.27.58.12,1.18-.83,3.99-.9,5.17-.13,1.99,1.29,3.51,1.63,5.7,1.26.15-.03.41-.03.44-.11.54-1.54,1.84-2.86,1.1-4.77-.7-1.79-1.36-3.69-.79-5.66.5-1.72.39-3.63,1.57-5.18.25-.33.23-1.07.05-1.5-.65-1.47-.29-3.08-.79-4.57-.7-2.05-1.38-4.12-1.88-6.23-1.01-4.27-1.49-8.62-1.34-13.01.02-.64.11-1.27.18-1.9.17-1.41.03-2.76-.65-4.03.43-.26.61-.64.71-1.15.15-.79.43-1.55,1.22-1.96.61-1.24,2.03-1.93,2.54-3.09.73-1.63,1.56-3.21,2.34-4.81.7-1.45,1.78-2.67,2.84-3.89,2.06-2.39,4.48-4.28,7.41-5.5,1.46-.62,2.86-1.4,4.42-1.79.5-.12.89-.59,1.1-1.07.36-.84.63-1.71.95-2.56.65-1.76,1.29-3.52,1.99-5.26.12-.29.16-.88.72-.75.66.15,1.36.59,1.43,1.15.14,1.01.68,1.79,1.04,2.66.19.64.49,1.24.56,1.91.06.39-.03.77-.17,1.12-.22.53,0,.88.43,1.17.22.51.85.2,1.15.56.5.94,1.39,1.14,2.34,1.46,2.71.93,5.43,1.85,7.77,3.64,1.77,1.34,3.24,2.97,4.68,4.6,1.04,1.16,1.67,2.69,2.43,4.09.72,1.3,1.38,2.64,2.04,3.98.15.3.45.28.66.44.27.79.46,1.59.61,2.4-.06-.4-.13-.8-.23-1.19-.15-.58.24-.78.79-.46.46.81.05,1.97,1,2.59-.28,1.1.92,1.99.42,3.11-.39.41-.2.91-.16,1.35.46,5.16.33,10.3-.31,15.43-.35.33-.08.9-.45,1.23-.59-.06-.72-.36-.76-.73-.05-.37.01-.79-.22-1.12-.32,1.52-1.07,2.86-.14,4.41.52.85-.3,1.74-.54,2.6-.26.91-.59,1.8-.7,2.76-.33,1.06-1.18,1.9-1.27,3.05-.31.63-.45,1.3-.51,1.98-.22,1.07-.3,2.1.5,3.01.14.16.05.53.07.8-.65.74-.64,1.36.01,2.23.14.19.1.45-.01.67.14,1.08-.52,1.99-.68,3.01-.11.74-.06,1.39.44,1.95.24.28.37.56.46.91.36,1.48,1.26,1.68,2.63.88,1.77-1.05,3.71-1.77,5.79-1.96.72-.06,1.41.14,1.99.61.75.62,1.36.92,2.12-.15.62-.87,2.12-.55,2.6.43.32.64.63.81,1.08.15.09-.13.13-.37.3-.31,1.42.52,2.62-.65,3.97-.49.61.07,1.39-.02,1.57.89.19.98-.33,1.39-1.19,1.51-.5.07-.72.74-1.34.58.07.06.16.18.22.16,1.79-.38,3.29.56,4.82,1.17,1.41.56,2.97.71,4.29,1.49.3.18.26-.08.39-.13.6-.25,1.13-.33,1.79.14.81.59,1.89.69,2.8,1.2,1.94,1.09,3.79,2.27,5.1,4.13.05.07.1.18.15.18,1.85-.06,1.54,1.7,2.21,2.63,1.63,2.27,2.48,4.95,3.42,7.52.75,2.02,1.97,3.74,2.73,5.74,1.22,3.21,2.42,6.47,4.14,9.47.34.6.51,1.14.59,1.9.15,1.5.6,3.1,1.94,4.17.44.35.25,2.11-.31,2.5-.32.22-.74.41-.37.76.78.74.64,1.89,1.37,2.69.68.76.11,1.95.58,2.88.47.96.58,2.48,1.3,2.84,1.52.74,1.27,1.93,1.64,3.1.71,2.29,1.41,4.61,2.55,6.76.42.79.72,1.69.97,2.54.8,2.76,1.95,5.4,2.72,8.18.46,1.67,1.38,3.2,2.5,4.56.19.23.56.31.85.45,1.8.87,2.87,2.5,4.06,3.98,1.2,1.5,2.31,3.13,2.99,4.88.75,1.9.91,3.9-.18,5.97Z"/>
</svg>