<svg width="139" height="150" viewBox="0 0 139 150" fill="none" xmlns="http://www.w3.org/2000/svg">
<mask id="path-1-outside-1_218_2" maskUnits="userSpaceOnUse" x="0" y="0" width="139" height="150" fill="black">
<rect fill="white" width="139" height="150"/>
<path d="M21.5467 140C20.6187 140 19.806 139.637 19.1873 138.948C18.621 138.365 18.5843 137.755 18.6525 137.344C18.9199 135.767 21.1797 134.573 21.6254 134.347C22.5482 133.926 23.4605 133.395 24.4305 132.712C26.0088 131.602 27.8072 130.719 29.9307 130.019C31.4827 129.504 32.9718 128.641 34.7702 127.216C36.3485 125.975 35.7507 122.957 34.6654 121.505C31.3359 117.43 28.2896 112.718 25.6155 107.512C24.2365 104.841 23.2351 101.864 22.6269 98.6618C21.6306 94.1131 22.1497 90.2848 24.3152 86.2724C24.9077 85.084 25.8882 84.2373 26.8372 83.4117C27.1937 83.1067 27.5241 82.8175 27.8439 82.5072C29.8363 80.5826 32.3321 80.3407 34.2879 80.3407C35.2579 80.3407 36.2436 80.409 37.1926 80.4774C38.0368 80.5352 38.839 80.5931 39.6203 80.6036H39.6674L39.7094 80.6141C41.3977 80.9349 43.1437 81.1505 44.8321 81.3556C46.0747 81.5081 47.3541 81.6658 48.6124 81.8657C49.1944 81.9077 50.2169 82.1707 51.5067 82.4967C53.5516 83.0173 56.0998 83.6589 57.8878 83.6589C58.6166 83.6589 59.5184 83.5432 59.6862 83.0068C60.1109 81.7447 60.2735 80.4616 60.4412 79.1049C60.4884 78.721 60.5356 78.3424 60.5881 77.9637C60.6562 77.4852 60.263 77.2118 60.0218 77.0856C59.1462 76.6964 58.0818 76.6701 57.0489 76.6438L56.6084 76.6333C52.3299 76.6438 48.0357 76.6543 43.7362 76.6754C43.1752 76.6754 42.6194 76.7911 42.0269 76.912C41.791 76.9593 41.5498 77.0067 41.3138 77.0487C40.8786 77.1118 40.4487 77.1381 40.0187 77.1381C34.8541 77.1381 29.8258 72.8471 27.1308 68.5876C26.1503 67.0783 25.2485 65.4902 24.3729 63.9547C23.1879 61.867 21.961 59.711 20.5348 57.7442C20.4771 57.6654 20.4247 57.5865 20.367 57.5076C20.367 58.9642 20.2097 60.4104 20.0524 61.825C19.9318 62.903 19.8112 64.0125 19.764 65.1011C19.7168 66.2948 19.6329 67.7094 19.4127 69.1502C19.203 70.5228 19.1034 71.9373 19.0142 73.3046C18.9251 74.5772 18.836 75.8971 18.6577 77.1907C18.4847 78.416 18.406 79.6833 18.3221 80.9033C18.2435 82.1339 18.1596 83.4064 17.9866 84.658C17.8188 85.8517 17.7401 87.0822 17.6667 88.2707C17.5933 89.4591 17.5147 90.6844 17.3469 91.8939C17.2053 92.9088 17.1424 93.9553 17.0795 94.9702C17.0166 96.0167 16.9484 97.0947 16.8016 98.1622C16.6443 99.2928 16.5761 100.465 16.5132 101.596C16.4503 102.685 16.3874 103.805 16.2406 104.914C16.0885 106.087 16.0151 107.302 15.9522 108.469C15.884 109.658 15.8159 110.883 15.6533 112.092C15.5117 113.155 15.2915 115.468 15.0556 117.914C14.6309 122.347 14.3582 125.076 14.2009 125.555L14.1904 125.586L10.0221 134.336L7.95621 126.033V125.975C7.95621 125.912 7.8461 119.791 7.98767 116.725C8.02437 116.278 8.04534 115.847 8.06632 115.416C8.10302 114.601 8.13972 113.759 8.30226 112.918C8.43859 111.382 8.51724 109.794 8.59589 108.259C8.63783 107.375 8.68502 106.497 8.73745 105.619C8.73745 105.445 8.7427 105.251 8.74794 105.062C8.75318 104.457 8.76367 103.836 8.87902 103.221C9.05205 102.306 9.094 101.391 9.13594 100.423C9.16216 99.7977 9.18837 99.1561 9.25654 98.5145C9.31945 97.6679 9.3614 96.8002 9.40335 95.9378C9.482 94.3339 9.56589 92.6722 9.78086 91.042C9.91719 89.2804 10.0273 87.4503 10.1374 85.6834C10.2528 83.8008 10.3733 81.8499 10.5254 79.9357C10.8977 76.6701 11.1074 73.3309 11.3119 70.1073C11.4639 67.6831 11.6265 65.1747 11.852 62.7137V62.6821L11.8624 62.6506C12.1403 61.3517 12.2295 59.9949 12.3134 58.6855C12.3868 57.5497 12.4654 56.3717 12.6594 55.2148C12.6909 55.0255 12.5808 54.852 12.3291 54.6942C11.4692 54.1578 10.6512 53.8949 9.82805 53.8949C9.71794 53.8949 9.60783 53.8949 9.49773 53.9107C9.29324 53.9265 9.08351 53.9528 8.87902 53.9738C8.47529 54.0211 8.05583 54.0684 7.63113 54.0684C7.29556 54.0684 6.98621 54.0369 6.69783 53.9738C5.89561 53.8002 5.14582 53.0167 5.01998 52.2227C4.94657 51.7652 5.07766 51.2971 5.37652 50.9448C5.68063 50.5925 6.12107 50.3874 6.58772 50.3874C6.62966 50.3874 6.67161 50.3874 6.70831 50.3874C7.66258 50.4347 8.72697 50.5294 9.75465 50.6188C11.249 50.7502 12.7957 50.887 14.117 50.8975C14.2009 50.8764 14.2743 50.8712 14.3425 50.8659C14.374 50.6188 14.3582 50.5767 14.2691 50.4978C11.8205 48.2576 10.7771 45.9491 11.1756 43.6353L11.2123 43.3566C11.3171 42.5362 11.4272 41.6896 11.4535 40.8692C11.5374 38.1978 12.9006 36.189 15.4016 35.0637C15.9784 34.806 16.0466 34.4958 16.0728 33.7964C16.0728 33.7122 16.0728 33.6281 16.078 33.5439C16.078 33.2442 16.0885 32.9287 16.1672 32.5974C16.251 32.2398 16.2668 31.8612 16.2877 31.4615C16.3087 31.0461 16.3245 30.6201 16.4188 30.1837C15.8735 30.0049 15.4541 29.7314 15.15 29.3581C14.8983 29.0478 14.568 28.5745 14.6519 28.0381C14.7095 27.6648 14.9402 27.3493 15.3649 27.0758C16.0675 26.613 16.9012 26.3606 17.8555 26.3186L18.1753 26.3028C18.642 26.2817 19.1086 26.2607 19.5753 26.2607C20.5715 26.2607 21.3737 26.3606 22.0973 26.571C22.1812 26.5973 22.2703 26.6183 22.3594 26.6393C22.889 26.7655 23.7751 26.9759 23.8538 27.9803C23.8957 28.5009 23.6912 29.2319 22.4591 29.7314C21.8037 29.9996 21.6149 30.2678 21.6149 30.9462C21.6149 32.0137 21.4786 33.0864 21.3527 34.1171C21.3003 34.5326 21.2479 34.9427 21.2059 35.3582C21.2059 35.4055 21.2059 35.4213 21.2059 35.4213C22.0239 36.1259 22.7789 36.9358 23.5077 37.714C23.9272 38.161 24.3466 38.6133 24.7818 39.0497C25.0335 39.3022 25.5211 39.6966 25.6627 39.807C27.199 41.0323 28.3368 42.5362 29.0341 44.2768C29.8678 46.354 31.1262 48.3786 32.9875 50.6398C33.7793 51.6021 34.5605 52.596 35.3208 53.5584C35.929 54.3261 36.532 55.0991 37.1507 55.8564C37.7746 56.6241 38.5192 57.2289 39.3633 57.6443C40.3333 58.1229 41.1513 58.6487 41.8591 59.2482C42.6142 59.8845 43.4583 60.1948 44.4493 60.1948C44.6118 60.1948 44.7796 60.1843 44.9527 60.1685C46.1481 60.0528 47.3541 59.8267 48.5233 59.6111C49.1525 59.4954 49.7817 59.3797 50.4109 59.2745C51.2341 59.143 52.073 59.0431 52.9172 58.98C54.7995 58.8433 56.6609 58.2911 58.7739 57.2447C60.0532 56.5453 60.5094 56.0089 60.2735 55.462C60.2472 55.4094 60.2315 55.3831 60.0847 55.3831C59.9851 55.3831 59.8802 55.3989 59.7806 55.4094L59.6338 55.4252C58.9941 55.4935 58.3282 55.6986 57.5417 56.0667C55.8219 56.866 53.9134 57.292 52.0101 57.292C51.3704 57.292 50.7307 57.2447 50.0963 57.15C47.9675 56.8398 45.4508 56.519 42.9078 56.519C42.6404 56.519 42.3677 56.519 42.1003 56.5295H41.8067L41.6494 56.2876C39.3109 52.6328 37.1821 48.6731 35.326 44.5135C35.0586 43.9087 34.7388 43.3093 34.4347 42.7255C33.9523 41.8 33.4489 40.8482 33.0924 39.8228C32.8879 39.2443 32.6153 38.4503 33.04 37.6141C32.8302 34.5063 34.1253 31.8612 35.5515 29.4632C36.0024 28.706 36.5163 27.8488 37.2556 27.1599C37.3185 27.1021 37.3499 26.9443 37.3814 26.7813L37.4076 26.6551C37.869 24.4991 38.1784 22.3325 38.5034 19.7505C39.0173 15.6645 40.9835 12.2306 44.5122 9.2595C47.7211 6.3988 50.736 5 53.7141 5C55.5545 5 57.3687 5.55742 59.1147 6.65122C60.7925 7.66088 62.2816 9.0439 63.6711 10.8739C64.2216 11.5996 64.4052 12.3726 64.1902 13.0615C63.9752 13.7556 63.3775 14.292 62.5018 14.5813C61.0967 15.044 59.5446 15.2701 57.7462 15.2701C57.5784 15.2701 57.4159 15.2701 57.2481 15.2649H57.2376C56.9702 15.2649 56.9335 15.2912 56.8391 15.4857C56.0526 17.1685 54.5426 17.9626 53.0849 18.7303C52.8857 18.8355 52.6865 18.9407 52.4925 19.0458C52.5449 19.0458 52.5921 19.0458 52.6445 19.0458C58.6952 19.0458 63.6449 21.8329 66.5863 26.8917C66.9586 27.4965 67.3204 28.1223 67.6769 28.7481C68.1383 29.5421 68.6103 30.3625 69.1084 31.146C70.0574 32.4607 71.7247 32.6868 73.4917 32.9287C74.0632 33.0076 74.6557 33.0864 75.2115 33.2126C78.908 34.0014 82.8667 34.7377 87.6747 35.5212C90.2754 35.9471 92.4985 37.2986 94.4648 39.6492C98.78 44.6818 99.944 51.3234 100.699 57.15C101.271 60.6207 101.8 64.0388 101.989 67.478C102.204 71.401 101.9 75.5027 101.04 80.388C100.248 84.8684 99.6399 88.6441 99.2414 92.4934C99.0159 94.681 98.4811 96.8265 97.962 98.8984C97.8152 99.4874 97.6684 100.082 97.5268 100.671C96.5673 104.709 96.5935 108.516 97.595 112.303C97.9043 113.475 98.0983 113.644 99.3043 113.833C99.6294 113.886 99.9597 113.912 100.295 113.912C100.877 113.912 101.48 113.833 102.094 113.675C104.82 112.976 107.206 112.213 109.398 111.335C111.689 110.42 113.519 108.885 115.454 107.26L116.161 106.665C116.528 106.36 116.895 106.05 117.262 105.735C118.563 104.625 119.91 103.479 121.42 102.553C122.38 101.964 123.318 101.675 124.288 101.675C124.566 101.675 124.849 101.701 125.133 101.749C127.219 102.111 128.583 103.374 129.186 105.498L129.196 105.535V105.572C129.411 107.06 129.61 108.548 129.81 110.036C130.638 116.22 131.498 122.615 133.113 128.752C133.595 130.682 133.863 132.18 133.983 133.611C134.072 134.657 133.805 135.577 133.223 136.214C132.704 136.782 131.949 137.092 131.105 137.092C130.748 137.092 130.376 137.039 129.998 136.934C128.992 136.656 128.189 136.051 127.482 135.441C125.573 133.805 123.948 131.86 122.647 129.656C121.42 127.574 119.575 126.69 116.481 126.69C115.978 126.69 115.48 126.79 114.955 126.89C114.809 126.916 114.667 126.948 114.52 126.974C114.017 127.111 110.562 129.367 109.481 130.324C105.9 133.49 101.485 135.961 95.9748 137.886C93.4633 138.764 89.6252 139.427 87.0508 139.427C86.5579 139.427 86.1175 139.406 85.7295 139.358C83.8681 139.132 82.2847 138.643 80.8795 137.854C80.1454 137.444 79.4848 136.824 78.9762 136.056C77.1672 133.348 75.5156 130.492 73.9951 127.816C73.4026 126.769 72.8101 125.728 72.2124 124.682C71.106 122.741 69.9997 120.801 68.9144 118.85C67.0058 115.858 59.9746 113.065 54.8414 111.03C52.9486 110.278 51.1607 109.568 49.8708 108.948C49.4252 108.753 48.9428 108.648 48.4551 108.648C47.9675 108.648 47.417 108.758 46.8769 108.969C46.5676 109.09 46.5099 109.158 46.5047 109.163C46.5047 109.179 46.4994 109.279 46.599 109.631C47.2859 112.045 48.5548 114.248 49.7869 116.378C50.9038 118.319 52.0625 120.322 52.8123 122.515C53.8662 125.502 55.1351 128.484 56.5822 131.371C57.505 132.959 58.2024 135.336 57.3477 137.176C56.9702 137.986 56.1156 139.027 54.1965 139.358C53.5778 139.464 52.9172 139.511 52.1779 139.511C51.3704 139.511 50.5629 139.453 49.7817 139.395C49.4042 139.369 49.0267 139.343 48.6492 139.322C45.844 139.169 43.3692 139.09 41.0779 139.09C38.43 139.09 36.0076 139.19 33.6692 139.39C30.3082 139.916 27.1413 139.958 23.3504 139.958H21.531L21.5467 140Z"/>
</mask>
<path d="M21.5467 140C20.6187 140 19.806 139.637 19.1873 138.948C18.621 138.365 18.5843 137.755 18.6525 137.344C18.9199 135.767 21.1797 134.573 21.6254 134.347C22.5482 133.926 23.4605 133.395 24.4305 132.712C26.0088 131.602 27.8072 130.719 29.9307 130.019C31.4827 129.504 32.9718 128.641 34.7702 127.216C36.3485 125.975 35.7507 122.957 34.6654 121.505C31.3359 117.43 28.2896 112.718 25.6155 107.512C24.2365 104.841 23.2351 101.864 22.6269 98.6618C21.6306 94.1131 22.1497 90.2848 24.3152 86.2724C24.9077 85.084 25.8882 84.2373 26.8372 83.4117C27.1937 83.1067 27.5241 82.8175 27.8439 82.5072C29.8363 80.5826 32.3321 80.3407 34.2879 80.3407C35.2579 80.3407 36.2436 80.409 37.1926 80.4774C38.0368 80.5352 38.839 80.5931 39.6203 80.6036H39.6674L39.7094 80.6141C41.3977 80.9349 43.1437 81.1505 44.8321 81.3556C46.0747 81.5081 47.3541 81.6658 48.6124 81.8657C49.1944 81.9077 50.2169 82.1707 51.5067 82.4967C53.5516 83.0173 56.0998 83.6589 57.8878 83.6589C58.6166 83.6589 59.5184 83.5432 59.6862 83.0068C60.1109 81.7447 60.2735 80.4616 60.4412 79.1049C60.4884 78.721 60.5356 78.3424 60.5881 77.9637C60.6562 77.4852 60.263 77.2118 60.0218 77.0856C59.1462 76.6964 58.0818 76.6701 57.0489 76.6438L56.6084 76.6333C52.3299 76.6438 48.0357 76.6543 43.7362 76.6754C43.1752 76.6754 42.6194 76.7911 42.0269 76.912C41.791 76.9593 41.5498 77.0067 41.3138 77.0487C40.8786 77.1118 40.4487 77.1381 40.0187 77.1381C34.8541 77.1381 29.8258 72.8471 27.1308 68.5876C26.1503 67.0783 25.2485 65.4902 24.3729 63.9547C23.1879 61.867 21.961 59.711 20.5348 57.7442C20.4771 57.6654 20.4247 57.5865 20.367 57.5076C20.367 58.9642 20.2097 60.4104 20.0524 61.825C19.9318 62.903 19.8112 64.0125 19.764 65.1011C19.7168 66.2948 19.6329 67.7094 19.4127 69.1502C19.203 70.5228 19.1034 71.9373 19.0142 73.3046C18.9251 74.5772 18.836 75.8971 18.6577 77.1907C18.4847 78.416 18.406 79.6833 18.3221 80.9033C18.2435 82.1339 18.1596 83.4064 17.9866 84.658C17.8188 85.8517 17.7401 87.0822 17.6667 88.2707C17.5933 89.4591 17.5147 90.6844 17.3469 91.8939C17.2053 92.9088 17.1424 93.9553 17.0795 94.9702C17.0166 96.0167 16.9484 97.0947 16.8016 98.1622C16.6443 99.2928 16.5761 100.465 16.5132 101.596C16.4503 102.685 16.3874 103.805 16.2406 104.914C16.0885 106.087 16.0151 107.302 15.9522 108.469C15.884 109.658 15.8159 110.883 15.6533 112.092C15.5117 113.155 15.2915 115.468 15.0556 117.914C14.6309 122.347 14.3582 125.076 14.2009 125.555L14.1904 125.586L10.0221 134.336L7.95621 126.033V125.975C7.95621 125.912 7.8461 119.791 7.98767 116.725C8.02437 116.278 8.04534 115.847 8.06632 115.416C8.10302 114.601 8.13972 113.759 8.30226 112.918C8.43859 111.382 8.51724 109.794 8.59589 108.259C8.63783 107.375 8.68502 106.497 8.73745 105.619C8.73745 105.445 8.7427 105.251 8.74794 105.062C8.75318 104.457 8.76367 103.836 8.87902 103.221C9.05205 102.306 9.094 101.391 9.13594 100.423C9.16216 99.7977 9.18837 99.1561 9.25654 98.5145C9.31945 97.6679 9.3614 96.8002 9.40335 95.9378C9.482 94.3339 9.56589 92.6722 9.78086 91.042C9.91719 89.2804 10.0273 87.4503 10.1374 85.6834C10.2528 83.8008 10.3733 81.8499 10.5254 79.9357C10.8977 76.6701 11.1074 73.3309 11.3119 70.1073C11.4639 67.6831 11.6265 65.1747 11.852 62.7137V62.6821L11.8624 62.6506C12.1403 61.3517 12.2295 59.9949 12.3134 58.6855C12.3868 57.5497 12.4654 56.3717 12.6594 55.2148C12.6909 55.0255 12.5808 54.852 12.3291 54.6942C11.4692 54.1578 10.6512 53.8949 9.82805 53.8949C9.71794 53.8949 9.60783 53.8949 9.49773 53.9107C9.29324 53.9265 9.08351 53.9528 8.87902 53.9738C8.47529 54.0211 8.05583 54.0684 7.63113 54.0684C7.29556 54.0684 6.98621 54.0369 6.69783 53.9738C5.89561 53.8002 5.14582 53.0167 5.01998 52.2227C4.94657 51.7652 5.07766 51.2971 5.37652 50.9448C5.68063 50.5925 6.12107 50.3874 6.58772 50.3874C6.62966 50.3874 6.67161 50.3874 6.70831 50.3874C7.66258 50.4347 8.72697 50.5294 9.75465 50.6188C11.249 50.7502 12.7957 50.887 14.117 50.8975C14.2009 50.8764 14.2743 50.8712 14.3425 50.8659C14.374 50.6188 14.3582 50.5767 14.2691 50.4978C11.8205 48.2576 10.7771 45.9491 11.1756 43.6353L11.2123 43.3566C11.3171 42.5362 11.4272 41.6896 11.4535 40.8692C11.5374 38.1978 12.9006 36.189 15.4016 35.0637C15.9784 34.806 16.0466 34.4958 16.0728 33.7964C16.0728 33.7122 16.0728 33.6281 16.078 33.5439C16.078 33.2442 16.0885 32.9287 16.1672 32.5974C16.251 32.2398 16.2668 31.8612 16.2877 31.4615C16.3087 31.0461 16.3245 30.6201 16.4188 30.1837C15.8735 30.0049 15.4541 29.7314 15.15 29.3581C14.8983 29.0478 14.568 28.5745 14.6519 28.0381C14.7095 27.6648 14.9402 27.3493 15.3649 27.0758C16.0675 26.613 16.9012 26.3606 17.8555 26.3186L18.1753 26.3028C18.642 26.2817 19.1086 26.2607 19.5753 26.2607C20.5715 26.2607 21.3737 26.3606 22.0973 26.571C22.1812 26.5973 22.2703 26.6183 22.3594 26.6393C22.889 26.7655 23.7751 26.9759 23.8538 27.9803C23.8957 28.5009 23.6912 29.2319 22.4591 29.7314C21.8037 29.9996 21.6149 30.2678 21.6149 30.9462C21.6149 32.0137 21.4786 33.0864 21.3527 34.1171C21.3003 34.5326 21.2479 34.9427 21.2059 35.3582C21.2059 35.4055 21.2059 35.4213 21.2059 35.4213C22.0239 36.1259 22.7789 36.9358 23.5077 37.714C23.9272 38.161 24.3466 38.6133 24.7818 39.0497C25.0335 39.3022 25.5211 39.6966 25.6627 39.807C27.199 41.0323 28.3368 42.5362 29.0341 44.2768C29.8678 46.354 31.1262 48.3786 32.9875 50.6398C33.7793 51.6021 34.5605 52.596 35.3208 53.5584C35.929 54.3261 36.532 55.0991 37.1507 55.8564C37.7746 56.6241 38.5192 57.2289 39.3633 57.6443C40.3333 58.1229 41.1513 58.6487 41.8591 59.2482C42.6142 59.8845 43.4583 60.1948 44.4493 60.1948C44.6118 60.1948 44.7796 60.1843 44.9527 60.1685C46.1481 60.0528 47.3541 59.8267 48.5233 59.6111C49.1525 59.4954 49.7817 59.3797 50.4109 59.2745C51.2341 59.143 52.073 59.0431 52.9172 58.98C54.7995 58.8433 56.6609 58.2911 58.7739 57.2447C60.0532 56.5453 60.5094 56.0089 60.2735 55.462C60.2472 55.4094 60.2315 55.3831 60.0847 55.3831C59.9851 55.3831 59.8802 55.3989 59.7806 55.4094L59.6338 55.4252C58.9941 55.4935 58.3282 55.6986 57.5417 56.0667C55.8219 56.866 53.9134 57.292 52.0101 57.292C51.3704 57.292 50.7307 57.2447 50.0963 57.15C47.9675 56.8398 45.4508 56.519 42.9078 56.519C42.6404 56.519 42.3677 56.519 42.1003 56.5295H41.8067L41.6494 56.2876C39.3109 52.6328 37.1821 48.6731 35.326 44.5135C35.0586 43.9087 34.7388 43.3093 34.4347 42.7255C33.9523 41.8 33.4489 40.8482 33.0924 39.8228C32.8879 39.2443 32.6153 38.4503 33.04 37.6141C32.8302 34.5063 34.1253 31.8612 35.5515 29.4632C36.0024 28.706 36.5163 27.8488 37.2556 27.1599C37.3185 27.1021 37.3499 26.9443 37.3814 26.7813L37.4076 26.6551C37.869 24.4991 38.1784 22.3325 38.5034 19.7505C39.0173 15.6645 40.9835 12.2306 44.5122 9.2595C47.7211 6.3988 50.736 5 53.7141 5C55.5545 5 57.3687 5.55742 59.1147 6.65122C60.7925 7.66088 62.2816 9.0439 63.6711 10.8739C64.2216 11.5996 64.4052 12.3726 64.1902 13.0615C63.9752 13.7556 63.3775 14.292 62.5018 14.5813C61.0967 15.044 59.5446 15.2701 57.7462 15.2701C57.5784 15.2701 57.4159 15.2701 57.2481 15.2649H57.2376C56.9702 15.2649 56.9335 15.2912 56.8391 15.4857C56.0526 17.1685 54.5426 17.9626 53.0849 18.7303C52.8857 18.8355 52.6865 18.9407 52.4925 19.0458C52.5449 19.0458 52.5921 19.0458 52.6445 19.0458C58.6952 19.0458 63.6449 21.8329 66.5863 26.8917C66.9586 27.4965 67.3204 28.1223 67.6769 28.7481C68.1383 29.5421 68.6103 30.3625 69.1084 31.146C70.0574 32.4607 71.7247 32.6868 73.4917 32.9287C74.0632 33.0076 74.6557 33.0864 75.2115 33.2126C78.908 34.0014 82.8667 34.7377 87.6747 35.5212C90.2754 35.9471 92.4985 37.2986 94.4648 39.6492C98.78 44.6818 99.944 51.3234 100.699 57.15C101.271 60.6207 101.8 64.0388 101.989 67.478C102.204 71.401 101.9 75.5027 101.04 80.388C100.248 84.8684 99.6399 88.6441 99.2414 92.4934C99.0159 94.681 98.4811 96.8265 97.962 98.8984C97.8152 99.4874 97.6684 100.082 97.5268 100.671C96.5673 104.709 96.5935 108.516 97.595 112.303C97.9043 113.475 98.0983 113.644 99.3043 113.833C99.6294 113.886 99.9597 113.912 100.295 113.912C100.877 113.912 101.48 113.833 102.094 113.675C104.82 112.976 107.206 112.213 109.398 111.335C111.689 110.42 113.519 108.885 115.454 107.26L116.161 106.665C116.528 106.36 116.895 106.05 117.262 105.735C118.563 104.625 119.91 103.479 121.42 102.553C122.38 101.964 123.318 101.675 124.288 101.675C124.566 101.675 124.849 101.701 125.133 101.749C127.219 102.111 128.583 103.374 129.186 105.498L129.196 105.535V105.572C129.411 107.06 129.61 108.548 129.81 110.036C130.638 116.22 131.498 122.615 133.113 128.752C133.595 130.682 133.863 132.18 133.983 133.611C134.072 134.657 133.805 135.577 133.223 136.214C132.704 136.782 131.949 137.092 131.105 137.092C130.748 137.092 130.376 137.039 129.998 136.934C128.992 136.656 128.189 136.051 127.482 135.441C125.573 133.805 123.948 131.86 122.647 129.656C121.42 127.574 119.575 126.69 116.481 126.69C115.978 126.69 115.48 126.79 114.955 126.89C114.809 126.916 114.667 126.948 114.52 126.974C114.017 127.111 110.562 129.367 109.481 130.324C105.9 133.49 101.485 135.961 95.9748 137.886C93.4633 138.764 89.6252 139.427 87.0508 139.427C86.5579 139.427 86.1175 139.406 85.7295 139.358C83.8681 139.132 82.2847 138.643 80.8795 137.854C80.1454 137.444 79.4848 136.824 78.9762 136.056C77.1672 133.348 75.5156 130.492 73.9951 127.816C73.4026 126.769 72.8101 125.728 72.2124 124.682C71.106 122.741 69.9997 120.801 68.9144 118.85C67.0058 115.858 59.9746 113.065 54.8414 111.03C52.9486 110.278 51.1607 109.568 49.8708 108.948C49.4252 108.753 48.9428 108.648 48.4551 108.648C47.9675 108.648 47.417 108.758 46.8769 108.969C46.5676 109.09 46.5099 109.158 46.5047 109.163C46.5047 109.179 46.4994 109.279 46.599 109.631C47.2859 112.045 48.5548 114.248 49.7869 116.378C50.9038 118.319 52.0625 120.322 52.8123 122.515C53.8662 125.502 55.1351 128.484 56.5822 131.371C57.505 132.959 58.2024 135.336 57.3477 137.176C56.9702 137.986 56.1156 139.027 54.1965 139.358C53.5778 139.464 52.9172 139.511 52.1779 139.511C51.3704 139.511 50.5629 139.453 49.7817 139.395C49.4042 139.369 49.0267 139.343 48.6492 139.322C45.844 139.169 43.3692 139.09 41.0779 139.09C38.43 139.09 36.0076 139.19 33.6692 139.39C30.3082 139.916 27.1413 139.958 23.3504 139.958H21.531L21.5467 140Z" fill="black"/>
<path d="M21.5467 140C20.6187 140 19.806 139.637 19.1873 138.948C18.621 138.365 18.5843 137.755 18.6525 137.344C18.9199 135.767 21.1797 134.573 21.6254 134.347C22.5482 133.926 23.4605 133.395 24.4305 132.712C26.0088 131.602 27.8072 130.719 29.9307 130.019C31.4827 129.504 32.9718 128.641 34.7702 127.216C36.3485 125.975 35.7507 122.957 34.6654 121.505C31.3359 117.43 28.2896 112.718 25.6155 107.512C24.2365 104.841 23.2351 101.864 22.6269 98.6618C21.6306 94.1131 22.1497 90.2848 24.3152 86.2724C24.9077 85.084 25.8882 84.2373 26.8372 83.4117C27.1937 83.1067 27.5241 82.8175 27.8439 82.5072C29.8363 80.5826 32.3321 80.3407 34.2879 80.3407C35.2579 80.3407 36.2436 80.409 37.1926 80.4774C38.0368 80.5352 38.839 80.5931 39.6203 80.6036H39.6674L39.7094 80.6141C41.3977 80.9349 43.1437 81.1505 44.8321 81.3556C46.0747 81.5081 47.3541 81.6658 48.6124 81.8657C49.1944 81.9077 50.2169 82.1707 51.5067 82.4967C53.5516 83.0173 56.0998 83.6589 57.8878 83.6589C58.6166 83.6589 59.5184 83.5432 59.6862 83.0068C60.1109 81.7447 60.2735 80.4616 60.4412 79.1049C60.4884 78.721 60.5356 78.3424 60.5881 77.9637C60.6562 77.4852 60.263 77.2118 60.0218 77.0856C59.1462 76.6964 58.0818 76.6701 57.0489 76.6438L56.6084 76.6333C52.3299 76.6438 48.0357 76.6543 43.7362 76.6754C43.1752 76.6754 42.6194 76.7911 42.0269 76.912C41.791 76.9593 41.5498 77.0067 41.3138 77.0487C40.8786 77.1118 40.4487 77.1381 40.0187 77.1381C34.8541 77.1381 29.8258 72.8471 27.1308 68.5876C26.1503 67.0783 25.2485 65.4902 24.3729 63.9547C23.1879 61.867 21.961 59.711 20.5348 57.7442C20.4771 57.6654 20.4247 57.5865 20.367 57.5076C20.367 58.9642 20.2097 60.4104 20.0524 61.825C19.9318 62.903 19.8112 64.0125 19.764 65.1011C19.7168 66.2948 19.6329 67.7094 19.4127 69.1502C19.203 70.5228 19.1034 71.9373 19.0142 73.3046C18.9251 74.5772 18.836 75.8971 18.6577 77.1907C18.4847 78.416 18.406 79.6833 18.3221 80.9033C18.2435 82.1339 18.1596 83.4064 17.9866 84.658C17.8188 85.8517 17.7401 87.0822 17.6667 88.2707C17.5933 89.4591 17.5147 90.6844 17.3469 91.8939C17.2053 92.9088 17.1424 93.9553 17.0795 94.9702C17.0166 96.0167 16.9484 97.0947 16.8016 98.1622C16.6443 99.2928 16.5761 100.465 16.5132 101.596C16.4503 102.685 16.3874 103.805 16.2406 104.914C16.0885 106.087 16.0151 107.302 15.9522 108.469C15.884 109.658 15.8159 110.883 15.6533 112.092C15.5117 113.155 15.2915 115.468 15.0556 117.914C14.6309 122.347 14.3582 125.076 14.2009 125.555L14.1904 125.586L10.0221 134.336L7.95621 126.033V125.975C7.95621 125.912 7.8461 119.791 7.98767 116.725C8.02437 116.278 8.04534 115.847 8.06632 115.416C8.10302 114.601 8.13972 113.759 8.30226 112.918C8.43859 111.382 8.51724 109.794 8.59589 108.259C8.63783 107.375 8.68502 106.497 8.73745 105.619C8.73745 105.445 8.7427 105.251 8.74794 105.062C8.75318 104.457 8.76367 103.836 8.87902 103.221C9.05205 102.306 9.094 101.391 9.13594 100.423C9.16216 99.7977 9.18837 99.1561 9.25654 98.5145C9.31945 97.6679 9.3614 96.8002 9.40335 95.9378C9.482 94.3339 9.56589 92.6722 9.78086 91.042C9.91719 89.2804 10.0273 87.4503 10.1374 85.6834C10.2528 83.8008 10.3733 81.8499 10.5254 79.9357C10.8977 76.6701 11.1074 73.3309 11.3119 70.1073C11.4639 67.6831 11.6265 65.1747 11.852 62.7137V62.6821L11.8624 62.6506C12.1403 61.3517 12.2295 59.9949 12.3134 58.6855C12.3868 57.5497 12.4654 56.3717 12.6594 55.2148C12.6909 55.0255 12.5808 54.852 12.3291 54.6942C11.4692 54.1578 10.6512 53.8949 9.82805 53.8949C9.71794 53.8949 9.60783 53.8949 9.49773 53.9107C9.29324 53.9265 9.08351 53.9528 8.87902 53.9738C8.47529 54.0211 8.05583 54.0684 7.63113 54.0684C7.29556 54.0684 6.98621 54.0369 6.69783 53.9738C5.89561 53.8002 5.14582 53.0167 5.01998 52.2227C4.94657 51.7652 5.07766 51.2971 5.37652 50.9448C5.68063 50.5925 6.12107 50.3874 6.58772 50.3874C6.62966 50.3874 6.67161 50.3874 6.70831 50.3874C7.66258 50.4347 8.72697 50.5294 9.75465 50.6188C11.249 50.7502 12.7957 50.887 14.117 50.8975C14.2009 50.8764 14.2743 50.8712 14.3425 50.8659C14.374 50.6188 14.3582 50.5767 14.2691 50.4978C11.8205 48.2576 10.7771 45.9491 11.1756 43.6353L11.2123 43.3566C11.3171 42.5362 11.4272 41.6896 11.4535 40.8692C11.5374 38.1978 12.9006 36.189 15.4016 35.0637C15.9784 34.806 16.0466 34.4958 16.0728 33.7964C16.0728 33.7122 16.0728 33.6281 16.078 33.5439C16.078 33.2442 16.0885 32.9287 16.1672 32.5974C16.251 32.2398 16.2668 31.8612 16.2877 31.4615C16.3087 31.0461 16.3245 30.6201 16.4188 30.1837C15.8735 30.0049 15.4541 29.7314 15.15 29.3581C14.8983 29.0478 14.568 28.5745 14.6519 28.0381C14.7095 27.6648 14.9402 27.3493 15.3649 27.0758C16.0675 26.613 16.9012 26.3606 17.8555 26.3186L18.1753 26.3028C18.642 26.2817 19.1086 26.2607 19.5753 26.2607C20.5715 26.2607 21.3737 26.3606 22.0973 26.571C22.1812 26.5973 22.2703 26.6183 22.3594 26.6393C22.889 26.7655 23.7751 26.9759 23.8538 27.9803C23.8957 28.5009 23.6912 29.2319 22.4591 29.7314C21.8037 29.9996 21.6149 30.2678 21.6149 30.9462C21.6149 32.0137 21.4786 33.0864 21.3527 34.1171C21.3003 34.5326 21.2479 34.9427 21.2059 35.3582C21.2059 35.4055 21.2059 35.4213 21.2059 35.4213C22.0239 36.1259 22.7789 36.9358 23.5077 37.714C23.9272 38.161 24.3466 38.6133 24.7818 39.0497C25.0335 39.3022 25.5211 39.6966 25.6627 39.807C27.199 41.0323 28.3368 42.5362 29.0341 44.2768C29.8678 46.354 31.1262 48.3786 32.9875 50.6398C33.7793 51.6021 34.5605 52.596 35.3208 53.5584C35.929 54.3261 36.532 55.0991 37.1507 55.8564C37.7746 56.6241 38.5192 57.2289 39.3633 57.6443C40.3333 58.1229 41.1513 58.6487 41.8591 59.2482C42.6142 59.8845 43.4583 60.1948 44.4493 60.1948C44.6118 60.1948 44.7796 60.1843 44.9527 60.1685C46.1481 60.0528 47.3541 59.8267 48.5233 59.6111C49.1525 59.4954 49.7817 59.3797 50.4109 59.2745C51.2341 59.143 52.073 59.0431 52.9172 58.98C54.7995 58.8433 56.6609 58.2911 58.7739 57.2447C60.0532 56.5453 60.5094 56.0089 60.2735 55.462C60.2472 55.4094 60.2315 55.3831 60.0847 55.3831C59.9851 55.3831 59.8802 55.3989 59.7806 55.4094L59.6338 55.4252C58.9941 55.4935 58.3282 55.6986 57.5417 56.0667C55.8219 56.866 53.9134 57.292 52.0101 57.292C51.3704 57.292 50.7307 57.2447 50.0963 57.15C47.9675 56.8398 45.4508 56.519 42.9078 56.519C42.6404 56.519 42.3677 56.519 42.1003 56.5295H41.8067L41.6494 56.2876C39.3109 52.6328 37.1821 48.6731 35.326 44.5135C35.0586 43.9087 34.7388 43.3093 34.4347 42.7255C33.9523 41.8 33.4489 40.8482 33.0924 39.8228C32.8879 39.2443 32.6153 38.4503 33.04 37.6141C32.8302 34.5063 34.1253 31.8612 35.5515 29.4632C36.0024 28.706 36.5163 27.8488 37.2556 27.1599C37.3185 27.1021 37.3499 26.9443 37.3814 26.7813L37.4076 26.6551C37.869 24.4991 38.1784 22.3325 38.5034 19.7505C39.0173 15.6645 40.9835 12.2306 44.5122 9.2595C47.7211 6.3988 50.736 5 53.7141 5C55.5545 5 57.3687 5.55742 59.1147 6.65122C60.7925 7.66088 62.2816 9.0439 63.6711 10.8739C64.2216 11.5996 64.4052 12.3726 64.1902 13.0615C63.9752 13.7556 63.3775 14.292 62.5018 14.5813C61.0967 15.044 59.5446 15.2701 57.7462 15.2701C57.5784 15.2701 57.4159 15.2701 57.2481 15.2649H57.2376C56.9702 15.2649 56.9335 15.2912 56.8391 15.4857C56.0526 17.1685 54.5426 17.9626 53.0849 18.7303C52.8857 18.8355 52.6865 18.9407 52.4925 19.0458C52.5449 19.0458 52.5921 19.0458 52.6445 19.0458C58.6952 19.0458 63.6449 21.8329 66.5863 26.8917C66.9586 27.4965 67.3204 28.1223 67.6769 28.7481C68.1383 29.5421 68.6103 30.3625 69.1084 31.146C70.0574 32.4607 71.7247 32.6868 73.4917 32.9287C74.0632 33.0076 74.6557 33.0864 75.2115 33.2126C78.908 34.0014 82.8667 34.7377 87.6747 35.5212C90.2754 35.9471 92.4985 37.2986 94.4648 39.6492C98.78 44.6818 99.944 51.3234 100.699 57.15C101.271 60.6207 101.8 64.0388 101.989 67.478C102.204 71.401 101.9 75.5027 101.04 80.388C100.248 84.8684 99.6399 88.6441 99.2414 92.4934C99.0159 94.681 98.4811 96.8265 97.962 98.8984C97.8152 99.4874 97.6684 100.082 97.5268 100.671C96.5673 104.709 96.5935 108.516 97.595 112.303C97.9043 113.475 98.0983 113.644 99.3043 113.833C99.6294 113.886 99.9597 113.912 100.295 113.912C100.877 113.912 101.48 113.833 102.094 113.675C104.82 112.976 107.206 112.213 109.398 111.335C111.689 110.42 113.519 108.885 115.454 107.26L116.161 106.665C116.528 106.36 116.895 106.05 117.262 105.735C118.563 104.625 119.91 103.479 121.42 102.553C122.38 101.964 123.318 101.675 124.288 101.675C124.566 101.675 124.849 101.701 125.133 101.749C127.219 102.111 128.583 103.374 129.186 105.498L129.196 105.535V105.572C129.411 107.06 129.61 108.548 129.81 110.036C130.638 116.22 131.498 122.615 133.113 128.752C133.595 130.682 133.863 132.18 133.983 133.611C134.072 134.657 133.805 135.577 133.223 136.214C132.704 136.782 131.949 137.092 131.105 137.092C130.748 137.092 130.376 137.039 129.998 136.934C128.992 136.656 128.189 136.051 127.482 135.441C125.573 133.805 123.948 131.86 122.647 129.656C121.42 127.574 119.575 126.69 116.481 126.69C115.978 126.69 115.48 126.79 114.955 126.89C114.809 126.916 114.667 126.948 114.52 126.974C114.017 127.111 110.562 129.367 109.481 130.324C105.9 133.49 101.485 135.961 95.9748 137.886C93.4633 138.764 89.6252 139.427 87.0508 139.427C86.5579 139.427 86.1175 139.406 85.7295 139.358C83.8681 139.132 82.2847 138.643 80.8795 137.854C80.1454 137.444 79.4848 136.824 78.9762 136.056C77.1672 133.348 75.5156 130.492 73.9951 127.816C73.4026 126.769 72.8101 125.728 72.2124 124.682C71.106 122.741 69.9997 120.801 68.9144 118.85C67.0058 115.858 59.9746 113.065 54.8414 111.03C52.9486 110.278 51.1607 109.568 49.8708 108.948C49.4252 108.753 48.9428 108.648 48.4551 108.648C47.9675 108.648 47.417 108.758 46.8769 108.969C46.5676 109.09 46.5099 109.158 46.5047 109.163C46.5047 109.179 46.4994 109.279 46.599 109.631C47.2859 112.045 48.5548 114.248 49.7869 116.378C50.9038 118.319 52.0625 120.322 52.8123 122.515C53.8662 125.502 55.1351 128.484 56.5822 131.371C57.505 132.959 58.2024 135.336 57.3477 137.176C56.9702 137.986 56.1156 139.027 54.1965 139.358C53.5778 139.464 52.9172 139.511 52.1779 139.511C51.3704 139.511 50.5629 139.453 49.7817 139.395C49.4042 139.369 49.0267 139.343 48.6492 139.322C45.844 139.169 43.3692 139.09 41.0779 139.09C38.43 139.09 36.0076 139.19 33.6692 139.39C30.3082 139.916 27.1413 139.958 23.3504 139.958H21.531L21.5467 140Z" stroke="white" stroke-width="10" mask="url(#path-1-outside-1_218_2)"/>
</svg>
