<?xml version="1.0" encoding="UTF-8"?>
<svg id="Layer_1" data-name="Layer 1" xmlns="http://www.w3.org/2000/svg" viewBox="0 0 64.35 65">
  <path fill="white" d="M32.3,10.19l1.42,3.7c3.26,8.53,10.08,15.16,18.69,18.2l1.92.68-3.32,1.4c-8.15,3.44-14.59,9.81-18.14,17.91l-1.68,3.85-1.86-3.98c-3.49-7.48-11.66-15.59-19.51-19.67l4.49-1.71c7.68-2.93,13.73-9.02,16.62-16.72l1.37-3.67M32.27,0c-.84,0-1.67.47-2.02,1.4l-4.01,10.7c-2.38,6.36-7.37,11.38-13.71,13.8L1.39,30.15c-1.85.7-1.85,3.31-.01,4.03l3.66,1.42c7.47,2.9,16.36,11.21,19.75,18.48l4.52,9.68c.39.83,1.17,1.25,1.95,1.25s1.6-.43,1.98-1.29l4.2-9.62c3.02-6.9,8.56-12.38,15.5-15.31l10.09-4.26c1.82-.77,1.74-3.37-.12-4.02l-8.84-3.12c-7.21-2.54-12.95-8.13-15.68-15.27l-4.1-10.72c-.35-.93-1.18-1.39-2.02-1.39h0Z"/>
</svg>