<?xml version="1.0" encoding="UTF-8"?>
<svg id="Layer_1" data-name="Layer 1" xmlns="http://www.w3.org/2000/svg" viewBox="0 0 64.35 65">
  <path d="M31.26,63.01c-.08,0-.12-.05-.14-.1l-4.52-9.68c-3.58-7.68-12.93-16.43-20.84-19.5l-3.66-1.42s-.1-.04-.1-.16c0-.1.04-.12.1-.14l11.15-4.25c6.87-2.62,12.29-8.08,14.87-14.97l4.01-10.7s.03-.08.08-.09h.07c.11,0,.13.04.15.09l4.1,10.73c2.95,7.71,9.1,13.7,16.88,16.44l8.84,3.12c.06.02.1.04.11.14,0,.11-.05.13-.1.15l-10.09,4.26c-7.43,3.14-13.31,8.95-16.55,16.35l-4.2,9.62c-.03.07-.1.09-.15.09Z" fill="black" stroke="white" />
</svg>