<?xml version="1.0" encoding="UTF-8"?>
<svg id="Layer_1" data-name="Layer 1" xmlns="http://www.w3.org/2000/svg" viewBox="0 0 635.08 145.2">
  <defs>
    <style>
      .cls-1 {
        fill: #fff;
      }
    </style>
  </defs>
  <path class="cls-1" d="M318.61,5.7l37.77,20.54,1.25.68,1.42-.08,87.02-4.76-28.55,6.89-23.14,5.58,23.43,4.2,122.22,21.9-165.38-12.07-3.05-.22-1.59,2.61-51.38,84.55-51.43-85.93-1.59-2.66-3.09.24-154.31,12,111.14-19,22-3.76-21.5-5.98-33.33-9.27,90.85,6.39,1.47.1,1.29-.71,38.48-21.23M318.6,0l-40.88,22.56-140.27-9.87,81.06,22.56L0,72.6l262.91-20.44,55.68,93.04,55.68-91.63,260.8,19.03-216.39-38.77,81.76-19.74-141.68,7.75L318.6,0h0Z"/>
</svg>