<?xml version="1.0" encoding="UTF-8"?>
<svg id="Layer_1" data-name="Layer 1" xmlns="http://www.w3.org/2000/svg" viewBox="0 0 385 188">
  <defs>
    <style>
      .cls-1 {
        fill: #fff;
      }
    </style>
  </defs>
  <path d="M356.46,179.51c-5.8-.94-25.53-4.2-35.6-6.52-10.53-2.45-20.27-6.92-29.69-11.25l-3.06-1.41c-47.6-21.73-95.72-44.43-142.26-66.39l-23.98-11.31c-2.05-.98-3.77-1.43-5.4-1.43-.62,0-1.26.07-1.92.21-.53.11-1.06.17-1.56.17-1.77,0-3.34-.69-4.79-2.1-1.81-1.73-3.97-3.29-5.88-4.67-.83-.6-1.67-1.2-2.49-1.83-.51-.39-.91-.59-1.18-.59-.05,0-.14,0-.3.07-.21.09-.45.24-.69.44-1.02.85-2.14,1.53-3.12,2.14-1.67,1.02-3.18,1.95-4.2,3.32-1.77,2.4-3.05,5.19-4.05,8.88,2.54.4,4.48,1.81,5.53,4.06,1.85,3.99-.86,7.28-1.87,8.52-1.33,1.61-2.97,2.86-4.76,3.6-1.29.54-2.64.81-4.01.81-3.36,0-6.5-1.73-8.39-4.64-1.63-2.49-1.84-5.32-.66-8.88,1.17-3.5,3.11-6.58,4.83-9.2,2.93-4.46,5.26-9.41,7.52-14.19l.25-.54c.13-.28.31-.66.38-.88-.12-.13-.4-.39-1.02-.76-11.41-6.79-23.76-12.16-35.71-17.34l-.53-.23c-1.49-.65-3.09-1.25-4.84-1.25-.03,0-.2,0-.26,0-.1.01-.3.02-.48.02-3.04,0-4.36-1.74-4.92-2.99-1.52-.48-2.96-1.15-4.42-1.85-2.4-1.14-4.67-2.21-7.25-2.21-.13,0-.22,0-.29,0-.23,0-.48.01-.71.01-3.21,0-6.65-.74-10.2-2.21-7.12-2.93-10.29-8.22-9.44-15.72.71-6.35,3.56-11.34,8.48-14.83.74-.52,1.5-.97,2.28-1.33l.02-.02.47-.2c1.52-.63,3.1-.95,4.69-.95,1.89,0,3.89.45,5.93,1.34,4.18,1.81,7.95,4.72,11.85,9.15,1.69,1.95,3.03,3.32,5.03,3.32,1.58,0,2.32,1.15,2.56,1.52l.03.04.05.04c.1.08.2.17.3.25.27.22.71.59.89.62.54-.14,1.02-.2,1.47-.2,1.76,0,3.32.88,4.61,2.63.89,1.19,2.1,1.99,3.65,2.82,10.46,5.49,19.08,9.79,27.12,13.51.64.29,1.41.61,2.26.65h.21c1.28.08,2.29.19,3.07.97l.2.2.15.24c.49.79,1.3,1.02,2.67,1.37.83.21,1.75.44,2.63.9.02-.03.45-.92.45-.92,1.62-3.27,3.46-6.95,4.96-10.58.86-2.07,1.63-4.25,2.37-6.37l.17-.49c.53-1.54,1.08-3.1,1.66-4.64,1.04-2.73,2.31-4.77,4-6.43.87-.85,1.88-1.52,3.01-1.99,1.19-.49,2.43-.74,3.69-.74,3.63,0,6.97,2.09,8.52,5.32,1.66,3.43,1.79,6.99.37,10.29-.89,2.07-2.29,3.55-4.05,4.29-.76.31-1.56.47-2.38.47-1.75,0-3.49-.75-4.97-2.11-4.51,5.92-5.9,12.32-4.25,19.53h0c.11.05.27.1.39.13l.31.1c4.49,1.44,8.25,2.34,11.88,2.86,2.24.33,3.73,1.36,4.67,3.26.88,1.8,2.33,3.06,4.83,4.22l16.22,7.52c36.53,16.94,77.93,36.15,117.42,54.99,4.4,2.1,8.8,4.17,13.21,6.24l.39.18c12.96,6.1,26.36,12.41,39.22,19.29,9.03,4.83,17.44,10.83,25.56,16.64l.65.47c2.53,1.8,5.14,3.67,7.73,5.45l15.64,10.84-10.9-1.77Z"/>
  <path class="cls-1" d="M20.99,6.55c1.57,0,3.21.38,4.94,1.13,3.84,1.66,7.32,4.36,10.97,8.51,1.61,1.86,3.63,4.17,6.91,4.17h.06c.13,0,.2.07.4.38.12.18.25.39.46.55.13.11.26.21.38.32.67.56,1.47,1.23,2.52,1.23.22,0,.45-.03.69-.09.27-.07.54-.11.79-.11.96,0,1.79.52,2.61,1.62,1.24,1.67,2.89,2.68,4.48,3.53,10.55,5.54,19.21,9.85,27.25,13.57.87.39,1.92.81,3.17.88h.25c.37.03,1.24.08,1.4.24,1.05,1.68,2.71,2.1,4.18,2.47.87.22,1.7.43,2.39.87.4.26.79.38,1.16.38.2,0,.4-.04.6-.12.7-.29,1.08-1.04,1.37-1.61l.42-.86c1.73-3.48,3.51-7.07,5.02-10.72.95-2.29,1.78-4.68,2.59-6.98.53-1.53,1.07-3.07,1.64-4.59.9-2.37,1.98-4.12,3.41-5.52.64-.63,1.38-1.12,2.21-1.46.9-.37,1.83-.55,2.74-.55,2.61,0,5.09,1.44,6.27,3.9,1.36,2.81,1.47,5.57.33,8.22-.63,1.47-1.57,2.49-2.72,2.97-.46.19-.94.28-1.42.28-1.21,0-2.46-.59-3.56-1.73-.46-.48-.94-.97-1.51-.97-.13,0-.27.03-.42.09-.31.13-.62.41-1.04.94-5.32,6.69-7,13.94-5.12,22.15.32,1.43,1.32,1.73,2.11,1.97l.29.09c4.59,1.47,8.49,2.41,12.27,2.95,1.43.21,2.21.74,2.79,1.9,1.14,2.32,3,3.97,6.01,5.37l16.22,7.52c38.55,17.88,78.4,36.37,117.39,54.98,4.4,2.1,8.81,4.18,13.22,6.25,13.06,6.15,26.56,12.5,39.49,19.41,8.89,4.75,17.23,10.71,25.29,16.47,2.75,1.96,5.59,3.99,8.41,5.94l6.56,4.55c-6.46-1.05-25.63-4.23-35.44-6.49-10.25-2.38-19.89-6.8-29.21-11.08l-3.05-1.41c-47.63-21.74-95.78-44.46-142.34-66.43l-23.88-11.26c-2.37-1.13-4.45-1.67-6.47-1.67-.81,0-1.62.09-2.43.26-.37.08-.72.12-1.05.12-1.11,0-2.07-.44-3.05-1.39-1.92-1.83-4.07-3.39-6.16-4.9-.82-.59-1.64-1.18-2.44-1.79-.72-.55-1.63-1.1-2.7-1.1-.4,0-.81.08-1.25.26-.46.19-.91.47-1.35.84-.89.74-1.91,1.36-2.89,1.96-1.73,1.06-3.52,2.16-4.83,3.92-2.31,3.13-3.84,6.77-4.98,11.83l-.06.27.19.19c.05.04.08.09.12.13.12.14.29.34.61.34.17-.01.34-.01.51-.01,2.35,0,3.98.92,4.83,2.74,1.04,2.25-.12,4.15-1.54,5.88-1.06,1.29-2.37,2.29-3.79,2.88-1.01.42-2.05.62-3.05.62-2.49,0-4.82-1.24-6.29-3.5-1.2-1.83-1.32-3.91-.38-6.73,1.07-3.2,2.91-6.13,4.55-8.62,3.05-4.64,5.43-9.7,7.74-14.6l.21-.45c.77-1.63,1.43-3.03-1.62-4.85-11.54-6.87-23.97-12.27-35.99-17.49l-.53-.23c-1.75-.77-3.66-1.46-5.83-1.46-.14,0-.28,0-.43.01-.1.01-.21.01-.31.01-1.41,0-2.28-.54-2.71-1.69-.18-.42-.62-.92-1.13-1.08-1.52-.45-3-1.14-4.42-1.82-2.55-1.21-5.18-2.46-8.33-2.46-.12,0-.24.01-.36.01-.21,0-.43,0-.64,0-2.89,0-6-.68-9.25-2.02-6.05-2.49-8.63-6.79-7.91-13.13.63-5.61,3.13-10.01,7.44-13.07.72-.51,1.48-.94,2.27-1.27h.01c1.21-.51,2.46-.77,3.74-.77M20.99,1.55c-1.92,0-3.82.38-5.65,1.14l-.92.38-.09.09c-.77.39-1.53.84-2.25,1.35C6.64,8.37,3.35,14.11,2.56,21.1c-.98,8.62,2.82,14.95,10.98,18.31,3.86,1.59,7.61,2.4,11.15,2.4.25,0,.52,0,.78-.01.08,0,.17,0,.25,0h-.03c2.02,0,3.95.91,6.18,1.97,1.19.57,2.44,1.15,3.77,1.64,1.4,2.18,3.78,3.44,6.65,3.44.15,0,.37,0,.65-.02h.09c1.28,0,2.59.5,3.82,1.04l.55.24c11.57,5.03,23.53,10.22,34.57,16.7-2.14,4.54-4.37,9.21-7.1,13.36-1.81,2.75-3.85,6-5.11,9.78-1.43,4.29-1.12,7.91.94,11.06,2.34,3.6,6.26,5.76,10.47,5.76,1.7,0,3.37-.34,4.97-1,2.17-.9,4.15-2.4,5.73-4.32,1.17-1.42,4.72-5.74,2.22-11.15-1-2.15-2.62-3.74-4.68-4.68.79-2.26,1.74-4.11,2.95-5.74.73-.98,1.97-1.74,3.42-2.63l.07-.04c.9-.55,1.89-1.16,2.87-1.91.73.55,1.45,1.07,2.16,1.58,1.93,1.39,3.93,2.84,5.63,4.46,1.89,1.83,4.08,2.77,6.5,2.77.68,0,1.39-.08,2.11-.23.46-.1.93-.15,1.37-.15,1.25,0,2.63.38,4.32,1.18l23.9,11.27c46.57,21.97,94.72,44.69,142.4,66.46l3.03,1.4c9.54,4.38,19.4,8.91,30.18,11.41,10.14,2.33,29.94,5.61,35.77,6.55l21.8,3.54-18.15-12.59-6.56-4.55c-2.57-1.77-5.17-3.63-7.68-5.42l-.68-.48c-8.19-5.85-16.66-11.9-25.84-16.81-12.93-6.91-26.38-13.24-39.38-19.36l-.34-.16c-5.15-2.42-9.35-4.4-13.2-6.24-39.53-18.87-80.92-38.07-117.44-55l-16.22-7.52c-2.43-1.13-3.18-2.13-3.63-3.04-1.32-2.65-3.52-4.2-6.55-4.64-3.32-.47-6.76-1.29-10.8-2.55-.9-5.17-.03-9.74,2.7-14.11,1.38.73,2.85,1.12,4.35,1.12,1.15,0,2.27-.22,3.33-.66,2.39-1,4.26-2.94,5.41-5.62,1.71-3.98,1.56-8.26-.43-12.37-1.96-4.08-6.19-6.72-10.77-6.72-1.59,0-3.15.31-4.64.93-1.42.58-2.71,1.43-3.82,2.52-1.95,1.91-3.41,4.24-4.58,7.31-.6,1.61-1.17,3.22-1.69,4.73l-.16.46c-.73,2.08-1.49,4.24-2.32,6.24-1.31,3.16-2.88,6.39-4.34,9.33-.27-.07-.53-.14-.77-.2-.4-.1-.97-.24-1.22-.36l-.25-.4-.4-.4c-1.52-1.52-3.49-1.62-4.66-1.69h-.04s-.04,0-.04,0h-.2c-.37-.03-.81-.2-1.35-.44-8-3.7-16.57-7.97-27-13.45-1.26-.67-2.18-1.27-2.79-2.08-2.24-3.01-4.84-3.64-6.62-3.64-.29,0-.58.02-.87.05-1.39-1.92-3.13-2.33-4.37-2.33h-.06c-.87,0-1.67-.75-3.13-2.44-4.18-4.75-8.23-7.87-12.77-9.83-2.36-1.02-4.69-1.54-6.92-1.54h0Z"/>
</svg>