<?xml version="1.0" encoding="UTF-8"?>
<svg id="a" data-name="Layer 1" xmlns="http://www.w3.org/2000/svg" viewBox="0 0 111.61 417.22">
  <defs>
    <style>
      .b {
        fill: #fff;
      }
    </style>
  </defs>
  <path d="M55.02,391.91c-1.6-5.65-7-24.91-9.16-35.02-2.24-10.58-2.31-21.29-2.37-31.66l-.02-3.37c-.45-52.32-.24-105.53-.04-156.99l.1-26.51c.02-2.27-.3-4.02-.99-5.5-.26-.56-.6-1.11-1-1.65-.32-.43-.6-.89-.81-1.34-.75-1.6-.79-3.32-.12-5.23.8-2.37,1.3-4.99,1.74-7.3.19-1.01.38-2.02.6-3.03.14-.63.15-1.07.04-1.32-.02-.05-.06-.13-.19-.24-.17-.15-.41-.31-.69-.44-1.2-.56-2.29-1.29-3.26-1.92-1.63-1.08-3.11-2.06-4.79-2.4-2.92-.59-5.99-.57-9.76.09.71,2.47.26,4.83-1.34,6.73-2.83,3.36-6.96,2.3-8.51,1.91-2.02-.52-3.85-1.48-5.28-2.79-1.04-.94-1.85-2.05-2.43-3.29-1.42-3.04-1.18-6.62.65-9.57,1.57-2.53,4.04-3.92,7.77-4.36,3.67-.42,7.28.03,10.38.48,5.28.77,10.75.78,16.04.81h.6c.31,0,.73,0,.96-.03.07-.16.18-.53.26-1.25,1.32-13.21.96-26.67.6-39.69l-.02-.58c-.04-1.63-.17-3.33-.92-4.91l-.11-.24c-.05-.09-.15-.26-.22-.43-1.29-2.75-.27-4.69.63-5.72-.21-1.58-.21-3.17-.19-4.79.02-2.66.03-5.17-1.07-7.5l-.12-.26c-.1-.21-.21-.43-.31-.64-1.36-2.91-2.14-6.34-2.31-10.18-.36-7.69,3.09-12.8,10.25-15.2,6.05-2.04,11.78-1.57,17.03,1.41.78.45,1.51.95,2.17,1.5h.03s.38.35.38.35c1.21,1.11,2.17,2.41,2.85,3.85.8,1.71,1.24,3.72,1.29,5.94.13,4.55-.91,9.2-3.28,14.61-1.05,2.36-1.73,4.15-.88,5.96.67,1.43-.06,2.59-.29,2.96l-.02.04-.02.06c-.03.12-.07.25-.1.38-.09.34-.23.89-.19,1.07.36.43.61.84.8,1.25.74,1.59.61,3.38-.43,5.29-.7,1.31-.91,2.74-1.01,4.5-.55,11.8-.8,21.43-.77,30.29,0,.7.04,1.54.37,2.32l.09.19c.47,1.19.8,2.16.42,3.19l-.1.27-.15.24c-.51.78-.37,1.61-.11,3,.16.84.34,1.77.3,2.76.04,0,1.02.02,1.02.02,3.65.08,7.76.19,11.68.02,2.24-.1,4.54-.32,6.77-.55l.52-.05c1.62-.17,3.27-.33,4.91-.46,2.91-.21,5.3.07,7.52.9,1.14.43,2.17,1.06,3.08,1.89.95.87,1.7,1.89,2.23,3.03,1.54,3.29,1.06,7.2-1.22,9.97-2.41,2.96-5.58,4.58-9.17,4.69-2.25.07-4.19-.57-5.6-1.85-.6-.56-1.09-1.21-1.43-1.96-.74-1.59-.8-3.48-.19-5.4-7.27-1.58-13.66-.13-19.49,4.41h0c0,.12.02.29.05.41l.04.32c.6,4.68,1.37,8.47,2.44,11.97.65,2.17.35,3.96-.98,5.61-1.26,1.56-1.79,3.41-1.78,6.16l.05,17.88c.11,40.27.22,85.91-.14,129.66-.04,4.88-.05,9.74-.06,14.61v.43c-.04,14.32-.09,29.14-.88,43.7-.56,10.23-2.43,20.38-4.26,30.2l-.15.79c-.56,3.05-1.15,6.21-1.67,9.31l-3.2,18.76-3.01-10.63-.03.05Z"/>
  <path class="b" d="M69.79,14.77c.66,1.42,1.01,3.07,1.07,4.95.12,4.18-.85,8.48-3.07,13.54-1,2.25-2.24,5.05-.85,8.03l.03.05c.06.12.02.21-.18.52-.11.18-.25.39-.3.65-.04.16-.08.32-.13.48-.22.84-.49,1.85-.05,2.8.09.2.22.4.37.59.18.22.33.44.43.67.41.87.29,1.84-.36,3.05-.99,1.83-1.21,3.75-1.3,5.55-.56,11.9-.8,21.57-.77,30.43.01.95.08,2.08.54,3.24l.11.23c.13.35.45,1.16.37,1.37-1.08,1.66-.76,3.34-.47,4.83.17.88.33,1.72.22,2.53-.07.47-.01.88.15,1.21.08.18.21.35.36.49.56.51,1.4.54,2.04.56l.96.02c3.89.1,7.89.19,11.84.01,2.48-.11,4.99-.37,7.42-.61,1.61-.17,3.23-.33,4.85-.46,2.53-.19,4.57.05,6.44.75.84.31,1.6.78,2.26,1.38.72.66,1.27,1.43,1.66,2.25,1.1,2.36.85,5.22-.88,7.33-1.97,2.42-4.42,3.69-7.31,3.78-1.6.05-2.92-.37-3.84-1.21-.37-.34-.65-.73-.85-1.17-.51-1.1-.51-2.48.06-3.96.24-.62.48-1.26.24-1.78-.06-.12-.14-.23-.26-.34-.25-.23-.63-.39-1.29-.54-8.31-1.99-15.59-.44-22.24,4.73-1.16.89-1.01,1.93-.89,2.75l.04.3c.61,4.78,1.41,8.71,2.52,12.37.41,1.38.26,2.32-.54,3.33-1.62,2.01-2.33,4.4-2.32,7.72l.05,17.88c.11,42.49.22,86.43-.15,129.63-.04,4.88-.06,9.75-.07,14.62-.05,14.44-.09,29.35-.88,43.99-.54,10.06-2.41,20.14-4.22,29.88-.61,3.32-1.25,6.75-1.82,10.13l-1.35,7.87c-1.78-6.3-7.01-25.01-9.11-34.86-2.18-10.29-2.25-20.9-2.32-31.15v-3.36c-.47-52.35-.25-105.6-.05-157.08l.1-26.4c.02-2.63-.37-4.74-1.22-6.57-.34-.73-.77-1.43-1.26-2.09-.23-.3-.41-.6-.55-.9-.47-1.01-.48-2.06-.03-3.35.85-2.51,1.35-5.12,1.83-7.65.19-.99.38-1.99.59-2.97.19-.89.31-1.94-.15-2.91-.17-.36-.42-.7-.76-1.02-.37-.34-.81-.63-1.33-.87-1.05-.49-2.04-1.16-3-1.79-1.69-1.12-3.45-2.28-5.6-2.72-3.81-.77-7.76-.61-12.83.49l-.27.06-.09.25c-.02.06-.05.11-.07.16-.08.17-.19.41-.05.7.08.15.15.3.22.46.99,2.13.85,4-.44,5.54-1.6,1.89-3.81,1.65-5.98,1.09-1.62-.41-3.08-1.18-4.21-2.22-.81-.74-1.43-1.6-1.85-2.5-1.05-2.26-.92-4.89.51-7.18,1.15-1.86,2.98-2.85,5.94-3.19,3.35-.38,6.79.04,9.74.48,5.49.8,11.09.82,16.5.84h.5c1.8,0,3.35.01,3.71-3.52,1.34-13.36.98-26.91.62-40.01l-.02-.58c-.04-1.91-.23-3.93-1.14-5.9-.06-.13-.12-.25-.19-.39-.05-.09-.1-.19-.14-.28-.6-1.28-.48-2.29.38-3.17.3-.34.57-.95.5-1.48-.24-1.57-.24-3.2-.22-4.77.02-2.82.04-5.73-1.3-8.59-.05-.11-.11-.21-.16-.32l-.27-.58c-1.22-2.62-1.92-5.72-2.08-9.24-.3-6.54,2.5-10.69,8.55-12.72,5.35-1.8,10.39-1.4,14.99,1.21.77.44,1.48.94,2.11,1.52h0c.97.89,1.74,1.91,2.28,3.07M74.32,12.65c-.81-1.74-1.96-3.3-3.42-4.64l-.73-.67-.12-.04c-.68-.53-1.41-1.03-2.18-1.47-5.8-3.3-12.39-3.85-19.06-1.61-8.23,2.76-12.35,8.88-11.94,17.7.19,4.17,1.05,7.91,2.54,11.12.11.23.22.47.34.7l.11.23v-.03c.84,1.83.83,3.96.82,6.43-.01,1.32,0,2.7.11,4.11-1.38,2.19-1.52,4.88-.3,7.48.06.14.16.34.29.58l.04.08c.54,1.16.64,2.56.67,3.9l.02.6c.34,12.61.7,25.64-.5,38.39-5.02-.02-10.19-.06-15.11-.78-3.26-.48-7.07-.95-11.02-.49-4.49.52-7.64,2.33-9.62,5.53-2.27,3.64-2.57,8.11-.79,11.92.72,1.54,1.73,2.91,3.01,4.08,1.73,1.59,3.93,2.74,6.34,3.36,1.78.46,7.2,1.85,11.04-2.71,1.52-1.82,2.28-3.96,2.26-6.22,2.38-.24,4.46-.16,6.45.24,1.2.25,2.41,1.05,3.83,1.99l.07.05c.88.58,1.85,1.22,2.94,1.79-.19.89-.36,1.77-.52,2.63-.44,2.34-.91,4.76-1.66,6.99-.86,2.49-.78,4.87.24,7.06.29.62.66,1.23,1.1,1.81.29.37.53.78.72,1.18.53,1.13.77,2.54.76,4.41l-.1,26.42c-.2,51.49-.42,104.73.03,157.15v3.34c.08,10.5.15,21.35,2.44,32.17,2.18,10.17,7.58,29.5,9.2,35.18l6.02,21.25,3.73-21.77,1.35-7.87c.52-3.08,1.1-6.22,1.66-9.25l.15-.82c1.84-9.9,3.73-20.13,4.3-30.53.79-14.64.83-29.5.88-43.87v-.38c.01-5.69.03-10.33.07-14.6.37-43.8.26-89.43.14-129.68l-.05-17.88c0-2.68.58-3.78,1.22-4.58,1.84-2.32,2.32-4.97,1.43-7.9-.98-3.21-1.69-6.67-2.26-10.86,4.3-3,8.81-4.15,13.93-3.52-.08,1.56.19,3.06.83,4.42.49,1.04,1.16,1.96,2.01,2.74,1.92,1.74,4.47,2.62,7.38,2.52,4.33-.13,8.14-2.08,11.03-5.62,2.87-3.5,3.47-8.45,1.53-12.6-.67-1.44-1.61-2.72-2.81-3.81-1.13-1.04-2.44-1.85-3.9-2.39-2.56-.96-5.28-1.3-8.56-1.06-1.71.14-3.41.3-5,.47l-.48.05c-2.19.22-4.47.44-6.64.54-3.42.15-7.01.09-10.29.02-.05-.27-.1-.54-.14-.78-.08-.4-.19-.98-.19-1.26l.26-.4.19-.53c.73-2.02,0-3.85-.44-4.94l-.02-.04-.02-.04-.08-.18c-.13-.35-.16-.82-.17-1.41-.03-8.81.21-18.39.76-30.15.07-1.43.23-2.51.7-3.41,1.78-3.3,1.25-5.93.5-7.54-.12-.26-.26-.52-.41-.77,1.15-2.07.79-3.82.26-4.95l-.03-.05c-.37-.79-.03-1.83.89-3.87,2.54-5.8,3.65-10.79,3.5-15.73-.07-2.57-.59-4.9-1.53-6.92h0l.03-.03Z"/>
</svg>